<?xml version="1.0" encoding="utf-8"?>
<!-- Generator: Adobe Illustrator 22.0.1, SVG Export Plug-In . SVG Version: 6.00 Build 0)  -->
<svg version="1.1" id="圖層_1" xmlns="http://www.w3.org/2000/svg" xmlns:xlink="http://www.w3.org/1999/xlink" x="0px" y="0px"
	 viewBox="0 0 25.8 22.8" style="enable-background:new 0 0 25.8 22.8;" xml:space="preserve">
<style type="text/css">
	.st0{fill:#FFFFFF;}
</style>
<title>alarm</title>
<path class="st0" d="M25.6,20.3L14.4,0.8c-0.5-0.8-1.5-1.1-2.3-0.6c-0.3,0.1-0.5,0.4-0.6,0.6L0.2,20.3c-0.5,0.8-0.2,1.8,0.6,2.3
	c0.3,0.2,0.6,0.2,0.8,0.2H24c0.9,0,1.7-0.7,1.7-1.7C25.8,20.8,25.7,20.5,25.6,20.3z M12.9,6.8c0.7,0,1.3,0.6,1.3,1.3l0,0L14,15.5
	c0,0.6-0.5,1.1-1.1,1.1s-1.1-0.5-1.1-1.1l-0.2-7.4C11.6,7.4,12.2,6.8,12.9,6.8L12.9,6.8z M12.9,20.1c-0.7,0-1.3-0.6-1.3-1.3
	s0.6-1.3,1.3-1.3s1.3,0.6,1.3,1.3S13.7,20.1,12.9,20.1C12.9,20.1,12.9,20.2,12.9,20.1L12.9,20.1z"/>
</svg>
