<?xml version="1.0" encoding="utf-8"?>
<!-- Generator: Adobe Illustrator 22.0.1, SVG Export Plug-In . SVG Version: 6.00 Build 0)  -->
<svg version="1.1" id="圖層_1" xmlns="http://www.w3.org/2000/svg" xmlns:xlink="http://www.w3.org/1999/xlink" x="0px" y="0px"
	 viewBox="0 0 27.6 20.3" style="enable-background:new 0 0 27.6 20.3;" xml:space="preserve">
<style type="text/css">
	.st0{fill:#FFFFFF;}
</style>
<title>field</title>
<path class="st0" d="M26.7,11.1h-3.2V7.4c0-1.3-1-2.3-2.3-2.3h-2.8V1c0-0.5-0.3-1-0.8-1h-0.1h-7.4C9.6,0,9.2,0.4,9.2,0.9V1v4.1H6.4
	c-1.3,0-2.3,1-2.3,2.3v3.7H0.9C0.4,11.1,0,11.5,0,12v7.4c0,0.5,0.4,0.9,0.9,0.9h7.4c0.5,0,0.9-0.4,0.9-0.9l0,0V12
	c0-0.5-0.4-0.9-0.9-0.9l0,0H5.1V7.4C5.1,6.6,5.7,6,6.4,6l0,0h2.8v2.3c0,0.5,0.4,0.9,0.9,0.9l0,0h7.4c0.5,0,0.9-0.4,0.9-0.9l0,0V6
	h2.8c0.8,0,1.4,0.6,1.4,1.4V11h-3.2c-0.5,0-0.9,0.4-0.9,0.9l0,0v7.4c0,0.5,0.4,0.9,0.9,0.9l0,0h7.4c0.5,0,0.9-0.4,0.9-0.9l0,0V12
	C27.6,11.5,27.2,11.1,26.7,11.1z"/>
</svg>
