<?xml version="1.0" encoding="utf-8"?>
<!-- Generator: Adobe Illustrator 22.0.1, SVG Export Plug-In . SVG Version: 6.00 Build 0)  -->
<svg version="1.1" id="圖層_1" xmlns="http://www.w3.org/2000/svg" xmlns:xlink="http://www.w3.org/1999/xlink" x="0px" y="0px"
	 viewBox="0 0 557 111" style="enable-background:new 0 0 557 111;" xml:space="preserve">
<style type="text/css">
	.st0{fill:#FFFFFF;}
</style>
<g>
	<path class="st0" d="M77.5,79.9c-0.9,0-1.6-0.5-2.2-1.5c-0.9-1.4-1.3-4.3-1.4-8.8l-1-40.6c0-1.6-0.1-2.9-0.1-3.9
		c0-3,0.3-5.3,0.8-6.9c0.5-1.5,1.4-2.9,2.6-4.2c1.3-1.2,3.2-2.5,5.8-3.8l-1-2.5c-2.8,1.3-5.1,2.6-6.9,3.9s-3.7,3-5.6,5.1
		c-8.1-6-16.4-9-25.1-9c-5.7,0-11.2,1.3-16.5,3.9c-5.4,2.6-9.4,6.1-12,10.6c-2.7,4.5-4,9.3-4,14.5c0,4.5,1.1,8.6,3.2,12.2
		s5.8,7.4,11.1,11.4l-7.8,10.6c-0.3,0.5-0.7,1-1.1,1.5c-2,2.5-3.4,4.9-4.4,7c-1,2.2-1.5,4.1-1.5,5.8c0,1.6,0.4,2.8,1.2,3.8
		c0.5,0.7,1.3,1.1,2.2,1.1c0.7,0,1.3-0.2,1.8-0.7c0.5-0.5,0.8-1.1,0.8-1.8c0-0.5-0.5-1.5-1.4-3c-0.7-1.1-1-2.2-1-3.1s0.3-1.5,0.8-2
		c0.7-0.7,1.6-1,2.7-1c4.2,0,12.2,3.9,24,11.6l21-15.9c0.1,4.9,0.8,8.4,2,10.6c1.2,2.2,3.3,4,6.1,5.3l3.4-2.8l10-8.6l-1.6-2
		C80.2,78.8,78.6,79.9,77.5,79.9z M59.2,23.7c0.4,0.3,1.1,1.1,2.1,2.2L62,54.1H32.7l23.8-32.4C58,22.8,58.9,23.5,59.2,23.7z
		 M14.4,38.7c0-3.5,1.1-6.9,3.2-10.3s5.3-6.1,9.5-8.2C31.3,18,35.8,17,40.6,17c4.5,0,9.1,1.1,13.7,3.4l-4,5.4
		c-3.2-1.2-6.1-1.8-8.6-1.8c-2.5,0-4.8,0.6-7,1.8c-2.2,1.2-3.9,2.8-5.1,4.8c-1.1,2-1.7,3.6-1.7,4.7c0,0.3,0.1,0.6,0.3,0.8
		c0.2,0.2,0.4,0.3,0.6,0.3c0.4,0,0.7-0.3,1.1-0.9c1.9-2.8,4.4-4.2,7.4-4.2c2.2,0,4.6,0.7,7.3,2.2L26.4,58.4
		C18.4,52.7,14.4,46.1,14.4,38.7z M49.6,80.7L21.9,68.8l4.9-6.8h35.3l0.2,9.2L49.6,80.7z"/>
	<path class="st0" d="M105.8,19.4h-1.6L89,38.1v2.4h5.1v31.2c0,2.5-0.3,4.5-0.9,5.8c-0.5,1.1-1.4,2.1-2.9,3.1v1.1
		c5.2,1.5,9.8,4.3,13.8,8.5l12-9.6l-1.4-1.6l-3.5,2.7l-6.1-4.5V40.5H116v-6.1h-10.9L105.8,19.4z"/>
	<path class="st0" d="M154,32.1l-16.8,13.4V27.8c0-4.1,0.5-7.1,1.4-9c1-1.9,2.7-3.7,5.3-5.3l-0.5-1.3c-2.7,0.4-5,1-7,2
		s-4.2,2.5-6.4,4.6c-1.9-1.7-3.4-2.8-4.6-3.5s-2.7-1.3-4.6-1.8l-0.6,1.4c2.3,1.3,3.9,2.8,4.7,4.5c0.8,1.7,1.2,4.7,1.2,9.2v49.5
		l-4.3,4.3l9.7,7.8l9.5-7.8l-3.9-3.9V48.2l9.3-7.5c2,1.3,3.4,2.6,4.2,4c0.5,1,0.8,2.7,0.8,5.3v22.8c0,8.4-0.3,13.6-0.9,15.6
		c-0.8,2.6-2.6,5.2-5.3,7.5c-2.7,2.4-7.5,5-14.5,7.8l0.8,2.1c8.5-3,15.5-6.6,21.1-10.7c4.2-3.1,7.1-6.5,8.7-10
		c1-2.2,1.5-5.6,1.5-10.3V49.9c0-5.2-0.5-8.9-1.6-11C159.9,36.7,157.6,34.5,154,32.1z"/>
	<path class="st0" d="M210.7,50l-15.3-17.9c-6,3.1-9.8,5-11.5,5.8c-2.2,1-5.1,2.1-8.5,3.4v31.1c0,3.6-0.2,5.9-0.6,6.9
		c-0.4,1.1-1.2,2-2.5,2.7v1.4c4.3,0.9,7.6,1.8,9.9,2.6c2.3,0.8,5.3,2.2,8.9,4.1l17.6-12.3l-1.2-1.6L199,82l-12.6-5v-9.9L210.7,50z
		 M186.3,38.8l0.8-0.4l13.6,15l-14.3,10V38.8H186.3z"/>
	<path class="st0" d="M261.1,81c-0.6,0-1.1-0.4-1.6-1.1c-0.8-1.2-1.1-2.9-1.1-5.4V48.6c0-2.8,0.4-5,1.1-6.6c0.5-1.2,2.1-3,4.7-5.3
		l-1.6-1.5l-5.3,5.1l-7.4-8.2l-16.7,13.4v-2c0-2.5-0.4-4.4-1.2-5.8s-2.8-3.3-6-5.7l-11.6,9.6l1.3,1.7c1.5-1.4,2.5-2.1,3.3-2.1
		c0.7,0,1.3,0.5,1.9,1.4c0.8,1.4,1.2,4,1.2,8v27.8l-4.1,3.9l9.7,7.8l9.6-7.8l-4.1-3.9V48.3l9.3-7.5l4.8,5.1v29.8
		c0,3.9,0.4,6.7,1.3,8.5c0.9,1.7,2.8,3.8,5.8,6l11.7-9.6l-1.3-1.7C262.9,80.3,261.7,81,261.1,81z"/>
	<path class="st0" d="M315.2,78.4c-1.3,1.1-2.1,1.7-2.3,1.9c-0.4,0.2-0.8,0.3-1.2,0.3c-0.8,0-1.4-0.5-2-1.4c-0.5-1-0.8-3.4-0.8-7.2
		V48.8c0-2.8,0.3-4.9,0.8-6.6c0.5-1.6,1.8-3.9,3.7-7l-2-0.8c-0.9,1.3-1.6,2.1-2,2.4c-0.4,0.3-1,0.4-1.7,0.4c-1.7,0-4.1-0.5-7.2-1.4
		s-6-2.2-8.7-3.7c-3.3,3.4-7,5.1-11.3,5.1c-0.7,0-1.7-0.1-3.1-0.2l-0.8,1.4l6.5,14c-4.4,5.1-7.4,9.5-9.2,13.3c-1.3,2.9-2,6-2,9.3
		c0,4.9,3.1,10,9.3,15l16.5-13.1c0.1,3.1,0.6,5.5,1.6,7.2c0.9,1.7,2.8,3.7,5.6,5.8l11.6-10L315.2,78.4z M297.8,74.4l-8.2,6.6
		c-5.3-3.8-8-8.7-8-14.5c0-3.3,1-7.2,3-11.7l13.2,6.2V74.4z M297.8,58.8l-12-5.6l-6.6-14l18.6,5.7V58.8z"/>
</g>
<g>
	<path class="st0" d="M349.5,89V65.5h8.1v5.7c3.8,7.1,9,10.6,15.2,10.6c3.1,0,5.9-1,8.1-2.9c2.2-1.9,3.3-4.5,3.3-7.6
		c0-3.1-0.9-5.4-2.8-6.6c-1.7-1.4-5.2-2.8-10.2-4c-5.9-1.6-10-2.9-13-4.3c-2.9-1.4-5-3.3-6.7-5.9s-2.4-5.5-2.4-9.2
		c0-5.4,1.7-9.9,5.4-13c3.6-3.3,8.1-4.8,13.7-4.8c5.2,0,10,1.7,14.4,5v-4.3h8v19.7h-8v-4.5c-3.3-5-8-7.4-13.7-7.4
		c-3.5,0-6.2,0.9-8.1,2.4S358,38,358,40.2c0,1.7,0.5,3.3,1.4,4.7c1,1.4,2.2,2.2,3.6,2.9c1.6,0.7,4.5,1.6,8.8,2.6
		c5.7,1.6,9.9,2.9,12.5,4.2c2.6,1.2,4.8,3.5,6.7,6.4c1.9,2.9,2.8,6.4,2.8,10.4c0,5.5-1.9,10-5.9,13.7c-4,3.6-8.6,5.4-14.5,5.4
		c-5.9,0-11.2-2.1-15.9-6.4v5H349.5z"/>
	<path class="st0" d="M401.6,56.3c0-9.3,3.1-17.3,9.2-23.7c6.2-6.4,14.2-9.5,24-9.5c10,0,18.2,3.1,24.4,9.5
		c6.2,6.4,9.3,14.4,9.3,23.9c0,9.7-3.1,17.8-9.5,24c-6.4,6.4-14.5,9.5-24.4,9.5c-6.2,0-12.1-1.6-17.3-4.5
		c-5.2-2.9-9.2-7.1-11.9-12.5C403,67.7,401.6,62.2,401.6,56.3z M412.3,56.5c0,7.1,2.1,13.1,6.2,17.8s9.7,7.3,16.4,7.3
		s12.3-2.4,16.6-7.4c4.3-4.8,6.4-10.7,6.4-17.6s-2.2-12.8-6.6-17.5c-4.3-4.8-9.9-7.1-16.6-7.1c-6.6,0-11.9,2.4-16.3,7.1
		C414.4,43.7,412.3,49.4,412.3,56.5z"/>
	<path class="st0" d="M483.1,81V32.4h-9.3v-8.1h22.1l28.4,50.3V32.4h-9.2v-8.1h26.6v8.1h-9.5v57.4h-10L491,34.5V81h9.3v8h-26.6v-8.1
		L483.1,81L483.1,81z"/>
</g>
</svg>
